<mxfile host="app.diagrams.net" agent="Mozilla/5.0 (Macintosh; Intel Mac OS X 10_15_7) AppleWebKit/537.36 (KHTML, like Gecko) Chrome/129.0.0.0 Safari/537.36" version="24.7.17">
  <diagram name="Страница — 1" id="LytYAsb0SIEO0ZhGPU4J">
    <mxGraphModel dx="909" dy="1649" grid="1" gridSize="10" guides="1" tooltips="1" connect="1" arrows="1" fold="1" page="1" pageScale="1" pageWidth="827" pageHeight="1169" math="0" shadow="0">
      <root>
        <mxCell id="0" />
        <mxCell id="1" parent="0" />
        <mxCell id="eXvZ_ieZV0vFPrDShpjX-1" style="edgeStyle=none;shape=connector;rounded=0;orthogonalLoop=1;jettySize=auto;html=1;exitX=0.5;exitY=0.5;exitDx=0;exitDy=0;exitPerimeter=0;strokeColor=default;align=center;verticalAlign=middle;fontFamily=Helvetica;fontSize=11;fontColor=default;labelBackgroundColor=default;endArrow=none;" parent="1" source="eXvZ_ieZV0vFPrDShpjX-6" target="eXvZ_ieZV0vFPrDShpjX-12" edge="1">
          <mxGeometry relative="1" as="geometry" />
        </mxCell>
        <mxCell id="eXvZ_ieZV0vFPrDShpjX-2" style="edgeStyle=none;shape=connector;rounded=0;orthogonalLoop=1;jettySize=auto;html=1;exitX=0.5;exitY=0.5;exitDx=0;exitDy=0;exitPerimeter=0;strokeColor=default;align=center;verticalAlign=middle;fontFamily=Helvetica;fontSize=11;fontColor=default;labelBackgroundColor=default;endArrow=none;" parent="1" source="eXvZ_ieZV0vFPrDShpjX-6" target="eXvZ_ieZV0vFPrDShpjX-24" edge="1">
          <mxGeometry relative="1" as="geometry" />
        </mxCell>
        <mxCell id="eXvZ_ieZV0vFPrDShpjX-3" style="edgeStyle=none;shape=connector;rounded=0;orthogonalLoop=1;jettySize=auto;html=1;exitX=0.5;exitY=0.5;exitDx=0;exitDy=0;exitPerimeter=0;strokeColor=default;align=center;verticalAlign=middle;fontFamily=Helvetica;fontSize=11;fontColor=default;labelBackgroundColor=default;endArrow=none;" parent="1" source="eXvZ_ieZV0vFPrDShpjX-6" target="eXvZ_ieZV0vFPrDShpjX-29" edge="1">
          <mxGeometry relative="1" as="geometry" />
        </mxCell>
        <mxCell id="eXvZ_ieZV0vFPrDShpjX-4" style="edgeStyle=none;shape=connector;rounded=0;orthogonalLoop=1;jettySize=auto;html=1;exitX=0.5;exitY=0.5;exitDx=0;exitDy=0;exitPerimeter=0;strokeColor=default;align=center;verticalAlign=middle;fontFamily=Helvetica;fontSize=11;fontColor=default;labelBackgroundColor=default;endArrow=none;" parent="1" source="eXvZ_ieZV0vFPrDShpjX-6" target="eXvZ_ieZV0vFPrDShpjX-38" edge="1">
          <mxGeometry relative="1" as="geometry" />
        </mxCell>
        <mxCell id="eXvZ_ieZV0vFPrDShpjX-5" style="edgeStyle=none;shape=connector;rounded=0;orthogonalLoop=1;jettySize=auto;html=1;exitX=0.5;exitY=0.5;exitDx=0;exitDy=0;exitPerimeter=0;strokeColor=default;align=center;verticalAlign=middle;fontFamily=Helvetica;fontSize=11;fontColor=default;labelBackgroundColor=default;endArrow=none;" parent="1" source="eXvZ_ieZV0vFPrDShpjX-6" target="eXvZ_ieZV0vFPrDShpjX-48" edge="1">
          <mxGeometry relative="1" as="geometry" />
        </mxCell>
        <mxCell id="eXvZ_ieZV0vFPrDShpjX-6" value="Зарегистрированный&lt;div&gt;пользователь&lt;/div&gt;" style="shape=umlActor;verticalLabelPosition=middle;verticalAlign=middle;html=1;outlineConnect=0;labelPosition=left;align=right;" parent="1" vertex="1">
          <mxGeometry x="230" y="490" width="30" height="60" as="geometry" />
        </mxCell>
        <mxCell id="eXvZ_ieZV0vFPrDShpjX-7" style="edgeStyle=none;shape=connector;rounded=0;orthogonalLoop=1;jettySize=auto;html=1;exitX=0.5;exitY=0.5;exitDx=0;exitDy=0;exitPerimeter=0;strokeColor=default;align=center;verticalAlign=middle;fontFamily=Helvetica;fontSize=11;fontColor=default;labelBackgroundColor=default;endArrow=none;" parent="1" source="eXvZ_ieZV0vFPrDShpjX-8" target="eXvZ_ieZV0vFPrDShpjX-15" edge="1">
          <mxGeometry relative="1" as="geometry" />
        </mxCell>
        <mxCell id="eXvZ_ieZV0vFPrDShpjX-8" value="Незарегистрированный&lt;div&gt;пользователь&lt;/div&gt;" style="shape=umlActor;verticalLabelPosition=middle;verticalAlign=middle;html=1;outlineConnect=0;labelPosition=left;align=right;" parent="1" vertex="1">
          <mxGeometry x="230" y="-100" width="30" height="60" as="geometry" />
        </mxCell>
        <mxCell id="eXvZ_ieZV0vFPrDShpjX-9" style="edgeStyle=none;shape=connector;rounded=0;orthogonalLoop=1;jettySize=auto;html=1;exitX=0.5;exitY=0.5;exitDx=0;exitDy=0;exitPerimeter=0;strokeColor=default;align=center;verticalAlign=middle;fontFamily=Helvetica;fontSize=11;fontColor=default;labelBackgroundColor=default;endArrow=block;endFill=0;endSize=16;" parent="1" source="eXvZ_ieZV0vFPrDShpjX-11" target="eXvZ_ieZV0vFPrDShpjX-6" edge="1">
          <mxGeometry relative="1" as="geometry" />
        </mxCell>
        <mxCell id="eXvZ_ieZV0vFPrDShpjX-10" style="edgeStyle=none;shape=connector;rounded=0;orthogonalLoop=1;jettySize=auto;html=1;exitX=0.5;exitY=0.5;exitDx=0;exitDy=0;exitPerimeter=0;entryX=0;entryY=0.5;entryDx=0;entryDy=0;strokeColor=default;align=center;verticalAlign=middle;fontFamily=Helvetica;fontSize=11;fontColor=default;labelBackgroundColor=default;endArrow=none;" parent="1" source="eXvZ_ieZV0vFPrDShpjX-11" target="eXvZ_ieZV0vFPrDShpjX-64" edge="1">
          <mxGeometry relative="1" as="geometry" />
        </mxCell>
        <mxCell id="eXvZ_ieZV0vFPrDShpjX-11" value="Администратор" style="shape=umlActor;verticalLabelPosition=middle;verticalAlign=middle;html=1;outlineConnect=0;labelPosition=left;align=right;" parent="1" vertex="1">
          <mxGeometry x="230" y="1200" width="30" height="60" as="geometry" />
        </mxCell>
        <mxCell id="eXvZ_ieZV0vFPrDShpjX-12" value="Аутентификация" style="ellipse;whiteSpace=wrap;html=1;fontFamily=Helvetica;fontSize=11;fontColor=default;labelBackgroundColor=default;" parent="1" vertex="1">
          <mxGeometry x="470" y="10" width="160" height="60" as="geometry" />
        </mxCell>
        <mxCell id="eXvZ_ieZV0vFPrDShpjX-13" style="edgeStyle=none;shape=connector;rounded=0;orthogonalLoop=1;jettySize=auto;html=1;exitX=0.5;exitY=1;exitDx=0;exitDy=0;entryX=0.5;entryY=0;entryDx=0;entryDy=0;dashed=1;strokeColor=default;align=center;verticalAlign=bottom;fontFamily=Helvetica;fontSize=11;fontColor=default;labelBackgroundColor=none;endArrow=open;endFill=0;endSize=12;" parent="1" source="eXvZ_ieZV0vFPrDShpjX-15" target="eXvZ_ieZV0vFPrDShpjX-12" edge="1">
          <mxGeometry relative="1" as="geometry" />
        </mxCell>
        <mxCell id="eXvZ_ieZV0vFPrDShpjX-14" value="&amp;lt;&amp;lt;extend&amp;gt;&amp;gt;" style="edgeLabel;html=1;align=center;verticalAlign=middle;resizable=0;points=[];fontFamily=Helvetica;fontSize=11;fontColor=default;labelBackgroundColor=none;" parent="eXvZ_ieZV0vFPrDShpjX-13" vertex="1" connectable="0">
          <mxGeometry x="-0.14" y="-1" relative="1" as="geometry">
            <mxPoint x="31" as="offset" />
          </mxGeometry>
        </mxCell>
        <mxCell id="eXvZ_ieZV0vFPrDShpjX-15" value="Регистрация" style="ellipse;whiteSpace=wrap;html=1;fontFamily=Helvetica;fontSize=11;fontColor=default;labelBackgroundColor=default;" parent="1" vertex="1">
          <mxGeometry x="465" y="-100" width="170" height="60" as="geometry" />
        </mxCell>
        <mxCell id="eXvZ_ieZV0vFPrDShpjX-30" style="edgeStyle=none;shape=connector;rounded=0;orthogonalLoop=1;jettySize=auto;html=1;exitX=1;exitY=0.5;exitDx=0;exitDy=0;entryX=0;entryY=0.5;entryDx=0;entryDy=0;dashed=1;strokeColor=default;align=center;verticalAlign=bottom;fontFamily=Helvetica;fontSize=11;fontColor=default;labelBackgroundColor=none;endArrow=open;endFill=0;endSize=12;" parent="1" source="eXvZ_ieZV0vFPrDShpjX-38" target="eXvZ_ieZV0vFPrDShpjX-53" edge="1">
          <mxGeometry relative="1" as="geometry" />
        </mxCell>
        <mxCell id="eXvZ_ieZV0vFPrDShpjX-31" value="&amp;lt;&amp;lt;include&amp;gt;&amp;gt;" style="edgeLabel;html=1;align=center;verticalAlign=middle;resizable=0;points=[];fontFamily=Helvetica;fontSize=11;fontColor=default;labelBackgroundColor=none;" parent="eXvZ_ieZV0vFPrDShpjX-30" vertex="1" connectable="0">
          <mxGeometry x="-0.0123" y="2" relative="1" as="geometry">
            <mxPoint as="offset" />
          </mxGeometry>
        </mxCell>
        <mxCell id="eXvZ_ieZV0vFPrDShpjX-32" style="edgeStyle=none;shape=connector;rounded=0;orthogonalLoop=1;jettySize=auto;html=1;exitX=1;exitY=0.5;exitDx=0;exitDy=0;entryX=0;entryY=0.5;entryDx=0;entryDy=0;dashed=1;strokeColor=default;align=center;verticalAlign=bottom;fontFamily=Helvetica;fontSize=11;fontColor=default;labelBackgroundColor=none;endArrow=open;endFill=0;endSize=12;" parent="1" source="eXvZ_ieZV0vFPrDShpjX-38" target="eXvZ_ieZV0vFPrDShpjX-54" edge="1">
          <mxGeometry relative="1" as="geometry" />
        </mxCell>
        <mxCell id="eXvZ_ieZV0vFPrDShpjX-33" value="&amp;lt;&amp;lt;include&amp;gt;&amp;gt;" style="edgeLabel;html=1;align=center;verticalAlign=middle;resizable=0;points=[];fontFamily=Helvetica;fontSize=11;fontColor=default;labelBackgroundColor=none;" parent="eXvZ_ieZV0vFPrDShpjX-32" vertex="1" connectable="0">
          <mxGeometry x="0.1095" y="-2" relative="1" as="geometry">
            <mxPoint y="-1" as="offset" />
          </mxGeometry>
        </mxCell>
        <mxCell id="eXvZ_ieZV0vFPrDShpjX-36" style="edgeStyle=none;shape=connector;rounded=0;orthogonalLoop=1;jettySize=auto;html=1;exitX=1;exitY=0.5;exitDx=0;exitDy=0;entryX=0;entryY=0.5;entryDx=0;entryDy=0;dashed=1;strokeColor=default;align=center;verticalAlign=bottom;fontFamily=Helvetica;fontSize=11;fontColor=default;labelBackgroundColor=none;endArrow=open;endFill=0;endSize=12;" parent="1" source="eXvZ_ieZV0vFPrDShpjX-38" target="eXvZ_ieZV0vFPrDShpjX-56" edge="1">
          <mxGeometry relative="1" as="geometry" />
        </mxCell>
        <mxCell id="eXvZ_ieZV0vFPrDShpjX-37" value="&amp;lt;&amp;lt;include&amp;gt;&amp;gt;" style="edgeLabel;html=1;align=center;verticalAlign=middle;resizable=0;points=[];fontFamily=Helvetica;fontSize=11;fontColor=default;labelBackgroundColor=none;" parent="eXvZ_ieZV0vFPrDShpjX-36" vertex="1" connectable="0">
          <mxGeometry x="-0.2" relative="1" as="geometry">
            <mxPoint as="offset" />
          </mxGeometry>
        </mxCell>
        <mxCell id="eXvZ_ieZV0vFPrDShpjX-38" value="Настройка профиля" style="ellipse;whiteSpace=wrap;html=1;fontFamily=Helvetica;fontSize=11;fontColor=default;labelBackgroundColor=default;" parent="1" vertex="1">
          <mxGeometry x="460" y="555" width="160" height="60" as="geometry" />
        </mxCell>
        <mxCell id="eXvZ_ieZV0vFPrDShpjX-65" value="Платформа для проведения виртуальных выставок и ярмарок" style="swimlane;startSize=0;fontFamily=Helvetica;fontSize=11;fontColor=default;labelBackgroundColor=default;" parent="1" vertex="1">
          <mxGeometry x="290" y="-100" width="660" height="1600" as="geometry">
            <mxRectangle x="270" y="210" width="350" height="30" as="alternateBounds" />
          </mxGeometry>
        </mxCell>
        <mxCell id="eXvZ_ieZV0vFPrDShpjX-24" value="Общение" style="ellipse;whiteSpace=wrap;html=1;fontFamily=Helvetica;fontSize=11;fontColor=default;labelBackgroundColor=default;" parent="eXvZ_ieZV0vFPrDShpjX-65" vertex="1">
          <mxGeometry x="160" y="470" width="160" height="60" as="geometry" />
        </mxCell>
        <mxCell id="eXvZ_ieZV0vFPrDShpjX-49" style="edgeStyle=none;shape=connector;rounded=0;orthogonalLoop=1;jettySize=auto;html=1;exitX=1;exitY=0.5;exitDx=0;exitDy=0;dashed=1;strokeColor=default;align=center;verticalAlign=bottom;fontFamily=Helvetica;fontSize=11;fontColor=default;labelBackgroundColor=none;endArrow=open;endFill=0;endSize=12;" parent="eXvZ_ieZV0vFPrDShpjX-65" source="eXvZ_ieZV0vFPrDShpjX-24" target="eXvZ_ieZV0vFPrDShpjX-24" edge="1">
          <mxGeometry relative="1" as="geometry" />
        </mxCell>
        <mxCell id="eXvZ_ieZV0vFPrDShpjX-29" value="Взаимодействие с выставками" style="ellipse;whiteSpace=wrap;html=1;fontFamily=Helvetica;fontSize=11;fontColor=default;labelBackgroundColor=default;" parent="eXvZ_ieZV0vFPrDShpjX-65" vertex="1">
          <mxGeometry x="160" y="290" width="170" height="60" as="geometry" />
        </mxCell>
        <mxCell id="eXvZ_ieZV0vFPrDShpjX-18" value="Записаться на выставку" style="ellipse;whiteSpace=wrap;html=1;fontFamily=Helvetica;fontSize=11;fontColor=default;labelBackgroundColor=default;" parent="eXvZ_ieZV0vFPrDShpjX-65" vertex="1">
          <mxGeometry x="395" y="250" width="160" height="60" as="geometry" />
        </mxCell>
        <mxCell id="eXvZ_ieZV0vFPrDShpjX-25" style="edgeStyle=none;shape=connector;rounded=0;orthogonalLoop=1;jettySize=auto;html=1;exitX=1;exitY=0.5;exitDx=0;exitDy=0;entryX=0;entryY=0.5;entryDx=0;entryDy=0;dashed=1;strokeColor=default;align=center;verticalAlign=bottom;fontFamily=Helvetica;fontSize=11;fontColor=default;labelBackgroundColor=none;endArrow=open;endFill=0;endSize=12;" parent="eXvZ_ieZV0vFPrDShpjX-65" source="eXvZ_ieZV0vFPrDShpjX-29" target="eXvZ_ieZV0vFPrDShpjX-18" edge="1">
          <mxGeometry relative="1" as="geometry" />
        </mxCell>
        <mxCell id="eXvZ_ieZV0vFPrDShpjX-26" value="&amp;lt;&amp;lt;include&amp;gt;&amp;gt;" style="edgeLabel;html=1;align=center;verticalAlign=middle;resizable=0;points=[];fontFamily=Helvetica;fontSize=11;fontColor=default;labelBackgroundColor=none;" parent="eXvZ_ieZV0vFPrDShpjX-25" vertex="1" connectable="0">
          <mxGeometry x="0.0266" y="4" relative="1" as="geometry">
            <mxPoint as="offset" />
          </mxGeometry>
        </mxCell>
        <mxCell id="eXvZ_ieZV0vFPrDShpjX-19" value="Написать сообщение" style="ellipse;whiteSpace=wrap;html=1;fontFamily=Helvetica;fontSize=11;fontColor=default;labelBackgroundColor=default;" parent="eXvZ_ieZV0vFPrDShpjX-65" vertex="1">
          <mxGeometry x="395" y="500" width="160" height="60" as="geometry" />
        </mxCell>
        <mxCell id="eXvZ_ieZV0vFPrDShpjX-23" value="&amp;lt;&amp;lt;include&amp;gt;&amp;gt;" style="edgeStyle=none;shape=connector;rounded=0;orthogonalLoop=1;jettySize=auto;html=1;exitX=1;exitY=0.5;exitDx=0;exitDy=0;entryX=0;entryY=0.5;entryDx=0;entryDy=0;dashed=1;strokeColor=default;align=center;verticalAlign=bottom;fontFamily=Helvetica;fontSize=11;fontColor=default;labelBackgroundColor=none;endArrow=open;endFill=0;endSize=12;" parent="eXvZ_ieZV0vFPrDShpjX-65" source="eXvZ_ieZV0vFPrDShpjX-24" target="eXvZ_ieZV0vFPrDShpjX-19" edge="1">
          <mxGeometry relative="1" as="geometry" />
        </mxCell>
        <mxCell id="eXvZ_ieZV0vFPrDShpjX-20" value="Ответить на сообщение" style="ellipse;whiteSpace=wrap;html=1;fontFamily=Helvetica;fontSize=11;fontColor=default;labelBackgroundColor=default;" parent="eXvZ_ieZV0vFPrDShpjX-65" vertex="1">
          <mxGeometry x="395" y="410" width="160" height="60" as="geometry" />
        </mxCell>
        <mxCell id="eXvZ_ieZV0vFPrDShpjX-21" style="edgeStyle=none;shape=connector;rounded=0;orthogonalLoop=1;jettySize=auto;html=1;exitX=1;exitY=0.5;exitDx=0;exitDy=0;entryX=0;entryY=0.5;entryDx=0;entryDy=0;dashed=1;strokeColor=default;align=center;verticalAlign=bottom;fontFamily=Helvetica;fontSize=11;fontColor=default;labelBackgroundColor=none;endArrow=open;endFill=0;endSize=12;" parent="eXvZ_ieZV0vFPrDShpjX-65" source="eXvZ_ieZV0vFPrDShpjX-24" target="eXvZ_ieZV0vFPrDShpjX-20" edge="1">
          <mxGeometry relative="1" as="geometry" />
        </mxCell>
        <mxCell id="eXvZ_ieZV0vFPrDShpjX-22" value="&amp;lt;&amp;lt;include&amp;gt;&amp;gt;" style="edgeLabel;html=1;align=center;verticalAlign=middle;resizable=0;points=[];fontFamily=Helvetica;fontSize=11;fontColor=default;labelBackgroundColor=none;" parent="eXvZ_ieZV0vFPrDShpjX-21" vertex="1" connectable="0">
          <mxGeometry x="0.1303" y="-1" relative="1" as="geometry">
            <mxPoint x="1" as="offset" />
          </mxGeometry>
        </mxCell>
        <mxCell id="eXvZ_ieZV0vFPrDShpjX-56" value="Настройка уведомлений" style="ellipse;whiteSpace=wrap;html=1;fontFamily=Helvetica;fontSize=11;fontColor=default;labelBackgroundColor=default;" parent="eXvZ_ieZV0vFPrDShpjX-65" vertex="1">
          <mxGeometry x="395" y="750" width="160" height="60" as="geometry" />
        </mxCell>
        <mxCell id="eXvZ_ieZV0vFPrDShpjX-54" value="Настройка безопасности" style="ellipse;whiteSpace=wrap;html=1;fontFamily=Helvetica;fontSize=11;fontColor=default;labelBackgroundColor=default;" parent="eXvZ_ieZV0vFPrDShpjX-65" vertex="1">
          <mxGeometry x="395" y="660" width="160" height="60" as="geometry" />
        </mxCell>
        <mxCell id="eXvZ_ieZV0vFPrDShpjX-53" value="Изменить личные данные" style="ellipse;whiteSpace=wrap;html=1;fontFamily=Helvetica;fontSize=11;fontColor=default;labelBackgroundColor=default;" parent="eXvZ_ieZV0vFPrDShpjX-65" vertex="1">
          <mxGeometry x="395" y="580" width="160" height="60" as="geometry" />
        </mxCell>
        <mxCell id="eXvZ_ieZV0vFPrDShpjX-57" value="Посмотреть принадлежность к выставке" style="ellipse;whiteSpace=wrap;html=1;fontFamily=Helvetica;fontSize=11;fontColor=default;labelBackgroundColor=default;" parent="eXvZ_ieZV0vFPrDShpjX-65" vertex="1">
          <mxGeometry x="400" y="1040" width="160" height="60" as="geometry" />
        </mxCell>
        <mxCell id="eXvZ_ieZV0vFPrDShpjX-17" value="Добавить в понравившиеся" style="ellipse;whiteSpace=wrap;html=1;fontFamily=Helvetica;fontSize=11;fontColor=default;labelBackgroundColor=default;" parent="eXvZ_ieZV0vFPrDShpjX-65" vertex="1">
          <mxGeometry x="400" y="950" width="150" height="60" as="geometry" />
        </mxCell>
        <mxCell id="eXvZ_ieZV0vFPrDShpjX-16" value="Просмотреть стенд" style="ellipse;whiteSpace=wrap;html=1;fontFamily=Helvetica;fontSize=11;fontColor=default;labelBackgroundColor=default;" parent="eXvZ_ieZV0vFPrDShpjX-65" vertex="1">
          <mxGeometry x="395" y="850" width="160" height="60" as="geometry" />
        </mxCell>
        <mxCell id="eXvZ_ieZV0vFPrDShpjX-48" value="Взаимодействие со стендами" style="ellipse;whiteSpace=wrap;html=1;fontFamily=Helvetica;fontSize=11;fontColor=default;labelBackgroundColor=default;" parent="eXvZ_ieZV0vFPrDShpjX-65" vertex="1">
          <mxGeometry x="175" y="950" width="160" height="60" as="geometry" />
        </mxCell>
        <mxCell id="eXvZ_ieZV0vFPrDShpjX-39" style="edgeStyle=none;shape=connector;rounded=0;orthogonalLoop=1;jettySize=auto;html=1;exitX=1;exitY=0.5;exitDx=0;exitDy=0;entryX=0;entryY=0.5;entryDx=0;entryDy=0;dashed=1;strokeColor=default;align=center;verticalAlign=bottom;fontFamily=Helvetica;fontSize=11;fontColor=default;labelBackgroundColor=none;endArrow=open;endFill=0;endSize=12;" parent="eXvZ_ieZV0vFPrDShpjX-65" source="eXvZ_ieZV0vFPrDShpjX-48" target="eXvZ_ieZV0vFPrDShpjX-16" edge="1">
          <mxGeometry relative="1" as="geometry" />
        </mxCell>
        <mxCell id="eXvZ_ieZV0vFPrDShpjX-40" value="&amp;lt;&amp;lt;include&amp;gt;&amp;gt;" style="edgeLabel;html=1;align=center;verticalAlign=middle;resizable=0;points=[];fontFamily=Helvetica;fontSize=11;fontColor=default;labelBackgroundColor=none;" parent="eXvZ_ieZV0vFPrDShpjX-39" vertex="1" connectable="0">
          <mxGeometry x="0.14" y="-2" relative="1" as="geometry">
            <mxPoint as="offset" />
          </mxGeometry>
        </mxCell>
        <mxCell id="eXvZ_ieZV0vFPrDShpjX-41" value="&amp;lt;&amp;lt;include&amp;gt;&amp;gt;" style="edgeStyle=none;shape=connector;rounded=0;orthogonalLoop=1;jettySize=auto;html=1;exitX=1;exitY=0.5;exitDx=0;exitDy=0;entryX=0;entryY=0.5;entryDx=0;entryDy=0;dashed=1;strokeColor=default;align=center;verticalAlign=bottom;fontFamily=Helvetica;fontSize=11;fontColor=default;labelBackgroundColor=none;endArrow=open;endFill=0;endSize=12;" parent="eXvZ_ieZV0vFPrDShpjX-65" source="eXvZ_ieZV0vFPrDShpjX-48" target="eXvZ_ieZV0vFPrDShpjX-17" edge="1">
          <mxGeometry relative="1" as="geometry" />
        </mxCell>
        <mxCell id="eXvZ_ieZV0vFPrDShpjX-42" style="edgeStyle=none;shape=connector;rounded=0;orthogonalLoop=1;jettySize=auto;html=1;exitX=1;exitY=0.5;exitDx=0;exitDy=0;entryX=0;entryY=0.5;entryDx=0;entryDy=0;dashed=1;strokeColor=default;align=center;verticalAlign=bottom;fontFamily=Helvetica;fontSize=11;fontColor=default;labelBackgroundColor=none;endArrow=open;endFill=0;endSize=12;" parent="eXvZ_ieZV0vFPrDShpjX-65" source="eXvZ_ieZV0vFPrDShpjX-48" target="eXvZ_ieZV0vFPrDShpjX-57" edge="1">
          <mxGeometry relative="1" as="geometry" />
        </mxCell>
        <mxCell id="eXvZ_ieZV0vFPrDShpjX-43" value="&amp;lt;&amp;lt;include&amp;gt;&amp;gt;" style="edgeLabel;html=1;align=center;verticalAlign=middle;resizable=0;points=[];fontFamily=Helvetica;fontSize=11;fontColor=default;labelBackgroundColor=none;" parent="eXvZ_ieZV0vFPrDShpjX-42" vertex="1" connectable="0">
          <mxGeometry x="0.075" y="2" relative="1" as="geometry">
            <mxPoint as="offset" />
          </mxGeometry>
        </mxCell>
        <mxCell id="eXvZ_ieZV0vFPrDShpjX-64" value="Управление пользователями" style="ellipse;whiteSpace=wrap;html=1;fontFamily=Helvetica;fontSize=11;fontColor=default;labelBackgroundColor=default;" parent="eXvZ_ieZV0vFPrDShpjX-65" vertex="1">
          <mxGeometry x="160" y="1320" width="160" height="60" as="geometry" />
        </mxCell>
        <mxCell id="eXvZ_ieZV0vFPrDShpjX-51" value="Забанить пользователя" style="ellipse;whiteSpace=wrap;html=1;fontFamily=Helvetica;fontSize=11;fontColor=default;labelBackgroundColor=default;" parent="eXvZ_ieZV0vFPrDShpjX-65" vertex="1">
          <mxGeometry x="400" y="1360" width="160" height="60" as="geometry" />
        </mxCell>
        <mxCell id="eXvZ_ieZV0vFPrDShpjX-62" style="edgeStyle=none;shape=connector;rounded=0;orthogonalLoop=1;jettySize=auto;html=1;exitX=1;exitY=0.5;exitDx=0;exitDy=0;entryX=0;entryY=0.5;entryDx=0;entryDy=0;dashed=1;strokeColor=default;align=center;verticalAlign=bottom;fontFamily=Helvetica;fontSize=11;fontColor=default;labelBackgroundColor=none;endArrow=open;endFill=0;endSize=12;" parent="eXvZ_ieZV0vFPrDShpjX-65" source="eXvZ_ieZV0vFPrDShpjX-64" target="eXvZ_ieZV0vFPrDShpjX-51" edge="1">
          <mxGeometry relative="1" as="geometry" />
        </mxCell>
        <mxCell id="eXvZ_ieZV0vFPrDShpjX-63" value="&amp;lt;&amp;lt;include&amp;gt;&amp;gt;" style="edgeLabel;html=1;align=center;verticalAlign=middle;resizable=0;points=[];fontFamily=Helvetica;fontSize=11;fontColor=default;labelBackgroundColor=none;" parent="eXvZ_ieZV0vFPrDShpjX-62" vertex="1" connectable="0">
          <mxGeometry x="0.05" relative="1" as="geometry">
            <mxPoint as="offset" />
          </mxGeometry>
        </mxCell>
        <mxCell id="eXvZ_ieZV0vFPrDShpjX-50" value="Удалить пользователя" style="ellipse;whiteSpace=wrap;html=1;fontFamily=Helvetica;fontSize=11;fontColor=default;labelBackgroundColor=default;" parent="eXvZ_ieZV0vFPrDShpjX-65" vertex="1">
          <mxGeometry x="400" y="1269" width="160" height="60" as="geometry" />
        </mxCell>
        <mxCell id="eXvZ_ieZV0vFPrDShpjX-60" style="edgeStyle=none;shape=connector;rounded=0;orthogonalLoop=1;jettySize=auto;html=1;exitX=1;exitY=0.5;exitDx=0;exitDy=0;entryX=0;entryY=0.5;entryDx=0;entryDy=0;dashed=1;strokeColor=default;align=center;verticalAlign=bottom;fontFamily=Helvetica;fontSize=11;fontColor=default;labelBackgroundColor=none;endArrow=open;endFill=0;endSize=12;" parent="eXvZ_ieZV0vFPrDShpjX-65" source="eXvZ_ieZV0vFPrDShpjX-64" target="eXvZ_ieZV0vFPrDShpjX-50" edge="1">
          <mxGeometry relative="1" as="geometry" />
        </mxCell>
        <mxCell id="eXvZ_ieZV0vFPrDShpjX-61" value="&amp;lt;&amp;lt;include&amp;gt;&amp;gt;" style="edgeLabel;html=1;align=center;verticalAlign=middle;resizable=0;points=[];fontFamily=Helvetica;fontSize=11;fontColor=default;labelBackgroundColor=none;" parent="eXvZ_ieZV0vFPrDShpjX-60" vertex="1" connectable="0">
          <mxGeometry x="-0.04" y="1" relative="1" as="geometry">
            <mxPoint as="offset" />
          </mxGeometry>
        </mxCell>
        <mxCell id="PsUkNW7IW-cb32Cs3OBe-1" value="Управление выставками" style="ellipse;whiteSpace=wrap;html=1;fontFamily=Helvetica;fontSize=11;fontColor=default;labelBackgroundColor=default;" vertex="1" parent="eXvZ_ieZV0vFPrDShpjX-65">
          <mxGeometry x="160" y="1160" width="160" height="60" as="geometry" />
        </mxCell>
        <mxCell id="PsUkNW7IW-cb32Cs3OBe-5" value="Добавить выставку" style="ellipse;whiteSpace=wrap;html=1;fontFamily=Helvetica;fontSize=11;fontColor=default;labelBackgroundColor=default;" vertex="1" parent="eXvZ_ieZV0vFPrDShpjX-65">
          <mxGeometry x="400" y="1120" width="160" height="60" as="geometry" />
        </mxCell>
        <mxCell id="PsUkNW7IW-cb32Cs3OBe-4" value="Удалить выставку" style="ellipse;whiteSpace=wrap;html=1;fontFamily=Helvetica;fontSize=11;fontColor=default;labelBackgroundColor=default;" vertex="1" parent="eXvZ_ieZV0vFPrDShpjX-65">
          <mxGeometry x="400" y="1190" width="160" height="60" as="geometry" />
        </mxCell>
        <mxCell id="PsUkNW7IW-cb32Cs3OBe-6" style="edgeStyle=none;shape=connector;rounded=0;orthogonalLoop=1;jettySize=auto;html=1;exitX=1;exitY=0.5;exitDx=0;exitDy=0;entryX=0;entryY=0.5;entryDx=0;entryDy=0;dashed=1;strokeColor=default;align=center;verticalAlign=bottom;fontFamily=Helvetica;fontSize=11;fontColor=default;labelBackgroundColor=none;endArrow=open;endFill=0;endSize=12;" edge="1" parent="eXvZ_ieZV0vFPrDShpjX-65" source="PsUkNW7IW-cb32Cs3OBe-1" target="PsUkNW7IW-cb32Cs3OBe-5">
          <mxGeometry relative="1" as="geometry">
            <mxPoint x="330" y="1360" as="sourcePoint" />
            <mxPoint x="410" y="1300" as="targetPoint" />
            <Array as="points" />
          </mxGeometry>
        </mxCell>
        <mxCell id="PsUkNW7IW-cb32Cs3OBe-7" value="&amp;lt;&amp;lt;include&amp;gt;&amp;gt;" style="edgeLabel;html=1;align=center;verticalAlign=middle;resizable=0;points=[];fontFamily=Helvetica;fontSize=11;fontColor=default;labelBackgroundColor=none;" vertex="1" connectable="0" parent="PsUkNW7IW-cb32Cs3OBe-6">
          <mxGeometry x="-0.04" y="1" relative="1" as="geometry">
            <mxPoint as="offset" />
          </mxGeometry>
        </mxCell>
        <mxCell id="PsUkNW7IW-cb32Cs3OBe-8" style="edgeStyle=none;shape=connector;rounded=0;orthogonalLoop=1;jettySize=auto;html=1;exitX=1;exitY=0.5;exitDx=0;exitDy=0;entryX=0;entryY=0.5;entryDx=0;entryDy=0;dashed=1;strokeColor=default;align=center;verticalAlign=bottom;fontFamily=Helvetica;fontSize=11;fontColor=default;labelBackgroundColor=none;endArrow=open;endFill=0;endSize=12;" edge="1" parent="eXvZ_ieZV0vFPrDShpjX-65" source="PsUkNW7IW-cb32Cs3OBe-1" target="PsUkNW7IW-cb32Cs3OBe-4">
          <mxGeometry relative="1" as="geometry">
            <mxPoint x="330" y="1200" as="sourcePoint" />
            <mxPoint x="410" y="1160" as="targetPoint" />
            <Array as="points" />
          </mxGeometry>
        </mxCell>
        <mxCell id="PsUkNW7IW-cb32Cs3OBe-9" value="&amp;lt;&amp;lt;include&amp;gt;&amp;gt;" style="edgeLabel;html=1;align=center;verticalAlign=middle;resizable=0;points=[];fontFamily=Helvetica;fontSize=11;fontColor=default;labelBackgroundColor=none;" vertex="1" connectable="0" parent="PsUkNW7IW-cb32Cs3OBe-8">
          <mxGeometry x="-0.04" y="1" relative="1" as="geometry">
            <mxPoint as="offset" />
          </mxGeometry>
        </mxCell>
        <mxCell id="PsUkNW7IW-cb32Cs3OBe-11" value="Управление стендами" style="ellipse;whiteSpace=wrap;html=1;fontFamily=Helvetica;fontSize=11;fontColor=default;labelBackgroundColor=default;" vertex="1" parent="eXvZ_ieZV0vFPrDShpjX-65">
          <mxGeometry x="160" y="1480" width="160" height="60" as="geometry" />
        </mxCell>
        <mxCell id="PsUkNW7IW-cb32Cs3OBe-13" value="Добавить стенд" style="ellipse;whiteSpace=wrap;html=1;fontFamily=Helvetica;fontSize=11;fontColor=default;labelBackgroundColor=default;" vertex="1" parent="eXvZ_ieZV0vFPrDShpjX-65">
          <mxGeometry x="400" y="1440" width="160" height="60" as="geometry" />
        </mxCell>
        <mxCell id="PsUkNW7IW-cb32Cs3OBe-14" style="edgeStyle=none;shape=connector;rounded=0;orthogonalLoop=1;jettySize=auto;html=1;exitX=1;exitY=0.5;exitDx=0;exitDy=0;entryX=0;entryY=0.5;entryDx=0;entryDy=0;dashed=1;strokeColor=default;align=center;verticalAlign=bottom;fontFamily=Helvetica;fontSize=11;fontColor=default;labelBackgroundColor=none;endArrow=open;endFill=0;endSize=12;" edge="1" parent="eXvZ_ieZV0vFPrDShpjX-65" source="PsUkNW7IW-cb32Cs3OBe-11" target="PsUkNW7IW-cb32Cs3OBe-13">
          <mxGeometry relative="1" as="geometry">
            <mxPoint x="330" y="1360" as="sourcePoint" />
            <mxPoint x="410" y="1309" as="targetPoint" />
          </mxGeometry>
        </mxCell>
        <mxCell id="PsUkNW7IW-cb32Cs3OBe-15" value="&amp;lt;&amp;lt;include&amp;gt;&amp;gt;" style="edgeLabel;html=1;align=center;verticalAlign=middle;resizable=0;points=[];fontFamily=Helvetica;fontSize=11;fontColor=default;labelBackgroundColor=none;" vertex="1" connectable="0" parent="PsUkNW7IW-cb32Cs3OBe-14">
          <mxGeometry x="-0.04" y="1" relative="1" as="geometry">
            <mxPoint as="offset" />
          </mxGeometry>
        </mxCell>
        <mxCell id="PsUkNW7IW-cb32Cs3OBe-16" value="Удалить стенд" style="ellipse;whiteSpace=wrap;html=1;fontFamily=Helvetica;fontSize=11;fontColor=default;labelBackgroundColor=default;" vertex="1" parent="eXvZ_ieZV0vFPrDShpjX-65">
          <mxGeometry x="400" y="1520" width="160" height="60" as="geometry" />
        </mxCell>
        <mxCell id="PsUkNW7IW-cb32Cs3OBe-17" style="edgeStyle=none;shape=connector;rounded=0;orthogonalLoop=1;jettySize=auto;html=1;exitX=1;exitY=0.5;exitDx=0;exitDy=0;entryX=0;entryY=0.5;entryDx=0;entryDy=0;dashed=1;strokeColor=default;align=center;verticalAlign=bottom;fontFamily=Helvetica;fontSize=11;fontColor=default;labelBackgroundColor=none;endArrow=open;endFill=0;endSize=12;" edge="1" parent="eXvZ_ieZV0vFPrDShpjX-65" source="PsUkNW7IW-cb32Cs3OBe-11" target="PsUkNW7IW-cb32Cs3OBe-16">
          <mxGeometry relative="1" as="geometry">
            <mxPoint x="330" y="1520" as="sourcePoint" />
            <mxPoint x="410" y="1480" as="targetPoint" />
          </mxGeometry>
        </mxCell>
        <mxCell id="PsUkNW7IW-cb32Cs3OBe-18" value="&amp;lt;&amp;lt;include&amp;gt;&amp;gt;" style="edgeLabel;html=1;align=center;verticalAlign=middle;resizable=0;points=[];fontFamily=Helvetica;fontSize=11;fontColor=default;labelBackgroundColor=none;" vertex="1" connectable="0" parent="PsUkNW7IW-cb32Cs3OBe-17">
          <mxGeometry x="-0.04" y="1" relative="1" as="geometry">
            <mxPoint as="offset" />
          </mxGeometry>
        </mxCell>
        <mxCell id="eXvZ_ieZV0vFPrDShpjX-52" value="Отменить выставку" style="ellipse;whiteSpace=wrap;html=1;fontFamily=Helvetica;fontSize=11;fontColor=default;labelBackgroundColor=default;" parent="eXvZ_ieZV0vFPrDShpjX-65" vertex="1">
          <mxGeometry x="390" y="320" width="160" height="60" as="geometry" />
        </mxCell>
        <mxCell id="eXvZ_ieZV0vFPrDShpjX-27" style="edgeStyle=none;shape=connector;rounded=0;orthogonalLoop=1;jettySize=auto;html=1;exitX=1;exitY=0.5;exitDx=0;exitDy=0;entryX=0;entryY=0.5;entryDx=0;entryDy=0;dashed=1;strokeColor=default;align=center;verticalAlign=bottom;fontFamily=Helvetica;fontSize=11;fontColor=default;labelBackgroundColor=none;endArrow=open;endFill=0;endSize=12;" parent="eXvZ_ieZV0vFPrDShpjX-65" source="eXvZ_ieZV0vFPrDShpjX-29" target="eXvZ_ieZV0vFPrDShpjX-52" edge="1">
          <mxGeometry relative="1" as="geometry" />
        </mxCell>
        <mxCell id="eXvZ_ieZV0vFPrDShpjX-28" value="&amp;lt;&amp;lt;include&amp;gt;&amp;gt;" style="edgeLabel;html=1;align=center;verticalAlign=middle;resizable=0;points=[];fontFamily=Helvetica;fontSize=11;fontColor=default;labelBackgroundColor=none;" parent="eXvZ_ieZV0vFPrDShpjX-27" vertex="1" connectable="0">
          <mxGeometry x="-0.0754" y="2" relative="1" as="geometry">
            <mxPoint y="1" as="offset" />
          </mxGeometry>
        </mxCell>
        <mxCell id="PsUkNW7IW-cb32Cs3OBe-2" value="" style="endArrow=none;html=1;rounded=0;entryX=0;entryY=0.5;entryDx=0;entryDy=0;exitX=0.5;exitY=0.5;exitDx=0;exitDy=0;exitPerimeter=0;" edge="1" parent="1" source="eXvZ_ieZV0vFPrDShpjX-11" target="PsUkNW7IW-cb32Cs3OBe-1">
          <mxGeometry width="50" height="50" relative="1" as="geometry">
            <mxPoint x="250" y="1170" as="sourcePoint" />
            <mxPoint x="660" y="1090" as="targetPoint" />
          </mxGeometry>
        </mxCell>
        <mxCell id="PsUkNW7IW-cb32Cs3OBe-12" value="" style="endArrow=none;html=1;rounded=0;exitX=0.5;exitY=0.5;exitDx=0;exitDy=0;exitPerimeter=0;entryX=0;entryY=0.5;entryDx=0;entryDy=0;" edge="1" parent="1" source="eXvZ_ieZV0vFPrDShpjX-11" target="PsUkNW7IW-cb32Cs3OBe-11">
          <mxGeometry width="50" height="50" relative="1" as="geometry">
            <mxPoint x="610" y="1290" as="sourcePoint" />
            <mxPoint x="660" y="1240" as="targetPoint" />
          </mxGeometry>
        </mxCell>
      </root>
    </mxGraphModel>
  </diagram>
</mxfile>
